# xmcd
#
# Track frame offsets:
#	150
#	16921
#	38124
#	56327
#	79376
#	96758
#	116125
#	134102
#	154841
#	172018
#	186421
#	203041
#	220530
#	235813
#	248007
#	263997
#	278641
#	294915
#	311886
#	329350
#
# Disc length: 4684 seconds
#
# Revision: 1
# Processed by: cddbd v1.5.2PL0 Copyright (c) Steve Scherf et al.
# Submitted via: audiograbber 1.83.01
#
DISCID=26124a14
DTITLE=Various Artist - Award Winning Country Volume 8 Disc 1
DYEAR=2009
DGENRE=Country
TTITLE0=Kasey Chambers and Shane Nicholson - Rattlin' Bones
TTITLE1=Brad Paisley - Letter To Me
TTITLE2=Carrie Underwood - Last Name
TTITLE3=Alan Jackson - Good Time
TTITLE4=Brooks and Dunn - God Must Be Busy
TTITLE5=Martina McBride - For These Times
TTITLE6=The McClymonts - Finally Over Blue
TTITLE7=Sugarland - Already Gone
TTITLE8=Catherine Britt - What I Did Last Night
TTITLE9=Adam Brand - Get On Down The Road
TTITLE10=Doc Walker - Beautiful Life
TTITLE11=Darren Coggan - Too Dark For The Light Horse (Too Light For The Clan)
TTITLE12=Melinda Schneider and Paul Kelly - Still
TTITLE13=Davidson Brothers - Left Hand Drive
TTITLE14=Jessie Farrell - Let's Talk About Love
TTITLE15=Core Lund - Tool For The Job (Hard on Equipment)
TTITLE16=Jake Owen - Easy Does It
TTITLE17=Julianne Hough - You, You, You
TTITLE18=Johnny Reid - Thank You
TTITLE19=Jamey Johnson - On Color
EXTD=
EXTT0=
EXTT1=
EXTT2=
EXTT3=
EXTT4=
EXTT5=
EXTT6=
EXTT7=
EXTT8=
EXTT9=
EXTT10=
EXTT11=
EXTT12=
EXTT13=
EXTT14=
EXTT15=
EXTT16=
EXTT17=
EXTT18=
EXTT19=
PLAYORDER=
